<svg id="Layer_1" data-name="Layer 1" xmlns="http://www.w3.org/2000/svg" viewBox="0 0 385.23 326.09"><defs><style>.cls-1{fill:#fafafa;}</style></defs><path class="cls-1" d="M420.14,461.57q-72.47,0-144.95,0c-22.92,0-41.32-13.67-46.36-34.43a53.43,53.43,0,0,1-1.29-12.37q-.1-116.22-.06-232.43c0-26.11,19.73-46.37,45.88-46.67,19.65-.22,39.32,0,59,0q116.46,0,232.92,0c22.43,0,41,13.77,46,34.26a51.86,51.86,0,0,1,1.35,12.36q.12,116.22.05,232.43c0,26.66-19.42,46.52-46.1,46.86-16.83.21-33.66,0-50.49,0Zm-183.2-68.75c0,7.31.4,14-.08,20.58-1.58,21.86,16.45,39.06,38.8,39q67.47-.25,134.93,0c4.36,0,5.65-1.1,5.62-5.55-.21-29-.11-58-.13-86.95,0-1.59-.19-3.19-.31-5-1.93-.12-3.4-.28-4.87-.28-13.16,0-26.33-.18-39.48.13a13.85,13.85,0,0,0-7.94,3q-18.68,15.45-36.87,31.46a13.86,13.86,0,0,1-9.91,3.61c-24.32-.13-48.64-.07-73-.07Zm366.11,0h-6.48c-24.17,0-48.33.11-72.49-.15a15.51,15.51,0,0,1-8.93-3.23c-13-10.43-25.64-21.28-38.52-31.85-1.68-1.39-4-2.75-6.06-2.79-13.82-.24-27.66-.08-41.49-.17-2.81,0-3.77,1-3.76,3.8q.09,45,0,90c0,3.13,1.17,3.94,4.12,3.94,45.82-.08,91.65.16,137.48-.17,18.68-.13,34.31-13.82,36-31.2C603.78,411.93,603.05,402.72,603.05,392.82ZM237.2,204.36h6.45c24.31,0,48.63.07,72.94-.07a13.77,13.77,0,0,1,9.9,3.57q18.4,16.13,37.23,31.77a13,13,0,0,0,7.5,2.78c13.15.28,26.3.14,39.46.12,1.61,0,3.23-.17,5.12-.27V145.08h-6.09q-61.95,0-123.89,0c-5,0-10-.14-15,.18-16.84,1.08-31.73,14.19-33.46,30.46C236.4,184.91,237.2,194.29,237.2,204.36Zm188.48,38.19c14.83,0,29.14.14,43.45-.13a13.25,13.25,0,0,0,7.5-2.82q19.22-15.57,38-31.65a14.08,14.08,0,0,1,9.89-3.67c24.16.14,48.31.07,72.47.07h6.25c0-7.38-.35-14,.06-20.65,1.5-23.67-18.82-38.9-38.46-38.73-44.48.39-89,.12-133.44.12h-5.74ZM370.05,345.07h100V252.42h-100Zm-132.86,38a20.4,20.4,0,0,0,2.44.34c25.49,0,51,.08,76.45-.06a9.08,9.08,0,0,0,5.22-2.25c12.11-10.18,24.18-20.42,36-30.88a9.7,9.7,0,0,0,2.83-6.26c.32-8.15.13-16.32.13-24.48V303.62H237.19Zm.17-169.21v79.52h123c0-13.52.16-26.65-.15-39.77a10.82,10.82,0,0,0-3.31-7c-11.7-10.38-23.64-20.51-35.65-30.54a10.54,10.54,0,0,0-6.17-2.36c-24.65-.17-49.29-.12-73.93-.11C240,213.6,238.83,213.77,237.36,213.89Zm365.51,169.6V303.68h-123c0,14.38-.07,28.36.12,42.33,0,1.34,1.33,3,2.48,3.94,12.47,10.54,25,21.05,37.64,31.36a10.86,10.86,0,0,0,6.31,2.08c14.49.18,29,.1,43.5.1ZM479.92,293.43H603V214.12a15.69,15.69,0,0,0-2.6-.47c-25,0-50-.05-75,0a7.69,7.69,0,0,0-4.51,1.58q-19.49,16-38.75,32.33a5.81,5.81,0,0,0-2.18,3.61C479.86,265.17,479.92,279.12,479.92,293.43Z" transform="translate(-227.48 -135.55)"/></svg>